:SAMPLES-PER-SECOND 30
:FULLY-SPECIFIED
:DEGREES
28
root  20.4081 39.0316 4.94145 -50.9659 -85.06 46.888
RightUpLeg  3.23899 -3.96828 -15.0606
RightLeg  13.9507 4.08649 0.388606
RightFoot  -11.6843 -0.047886 9.93364
RightToes  5.47152e-009 0 -3.6325e-017
Spine  4.70414 0.762228 -0.372615
Spine1  3.31458 1.28605 -4.83211
HEad  0.12788 -4.69042 -2.92457
LeftShoulder1  0.0182294 3.42425 -17.9736
LeftArm  -18.4676 -6.38897 -27.0555
LeftForeArm  9.07134 1.48212 -0.0789707
LeftHand  -0.0570756 4.16625 3.70783
RightShoulder  -0.26466 -4.57885 17.4247
RightArm  -14.6318 -2.58198 21.6561
RightForeArm  12.5832 18.4653 1.68044
RightHand  -0.329367 3.78801 -4.4207
LeftUpLeg  -1.85616 6.02558 -2.18381
LeftLeg  16.6634 1.72692 0.620539
LeftFoot  -12.0705 0.0819475 1.25917
LeftToes  -4.29285e-010 1.49941e-010 2.15559e-012
29
root  20.1925 38.8255 5.26563 -57.352 -84.822 52.6391
RightUpLeg  0.291059 -2.32028 -16.1694
RightLeg  21.4429 1.95673 0.704557
RightFoot  -11.8604 -0.0290864 12.5197
RightToes  5.47152e-009 0 -3.6325e-017
Spine  5.19686 0.999985 -1.51656
Spine1  4.52002 1.3078 -4.75588
HEad  -0.676021 -4.41062 -2.20252
LeftShoulder1  -0.0801745 3.79393 -21.0288
LeftArm  -17.0608 -7.28155 -29.4921
LeftForeArm  10.2543 3.48054 -0.642834
LeftHand  -0.0381809 4.80303 3.57106
RightShoulder  -0.303944 -4.64462 19.5014
RightArm  -8.8828 -0.852176 24.7307
RightForeArm  11.5248 14.8706 0.419815
RightHand  -0.18997 3.50144 -2.71507
LeftUpLeg  -1.6203 6.40676 -3.05871
LeftLeg  18.5221 1.87537 0.641066
LeftFoot  -13.264 0.113399 2.08178
LeftToes  -4.29285e-010 1.49941e-010 2.15559e-012
30
root  19.9791 38.6578 5.5729 -66.5327 -84.9422 60.7864
RightUpLeg  -3.24055 -2.15193 -16.7896
RightLeg  30.033 -0.0825447 -0.303134
RightFoot  -9.80239 -0.276703 15.3655
RightToes  5.47152e-009 0 -3.6325e-017
Spine  6.35025 1.28188 -2.61304
Spine1  5.78063 1.29346 -4.28675
HEad  -2.42421 -3.98714 -2.11259
LeftShoulder1  -0.160977 4.02763 -24.562
LeftArm  -16.9391 -7.0205 -31.5233
LeftForeArm  13.6357 3.05276 -0.655378
LeftHand  -0.0577837 3.68554 2.65076
RightShoulder  -0.354019 -4.74784 21.4231
RightArm  -5.46165 0.926935 28.0058
RightForeArm  13.3165 11.8862 0.202993
RightHand  -0.0556401 2.8008 -1.01434
LeftUpLeg  -0.679765 6.93675 -3.6044
LeftLeg  19.8854 2.27984 0.74656
LeftFoot  -14.5056 0.148169 2.18646
LeftToes  -4.29285e-010 1.49941e-010 2.15559e-012
31
root  19.7073 38.6143 5.898 -72.8825 -85.3612 66.2138
RightUpLeg  -7.26247 -2.7592 -16.4836
RightLeg  38.3037 -2.40388 -2.30923
RightFoot  -4.60902 -0.781414 13.3256
RightToes  5.47152e-009 0 -3.6325e-017
Spine  7.52594 1.23836 -2.40139
Spine1  6.74054 1.29334 -4.56191
HEad  -4.2293 -3.01129 -1.96128
LeftShoulder1  -0.191803 4.07939 -27.1313
LeftArm  -15.6835 -6.21463 -33.691
LeftForeArm  15.1296 1.96074 -1.49484
LeftHand  -0.0358651 4.88803 2.80064
RightShoulder  -0.40666 -4.86617 22.9272
RightArm  -3.9516 1.37624 31.9996
RightForeArm  15.517 10.2069 0.438716
RightHand  -0.0354342 1.99243 -0.731206
LeftUpLeg  0.775346 7.68097 -3.59399
LeftLeg  20.1317 2.30405 0.616391
LeftFoot  -15.226 0.189878 2.91271
LeftToes  -4.29285e-010 1.49941e-010 2.15559e-012
32
root  19.363 38.5956 6.18075 -74.5065 -85.6622 67.3075
RightUpLeg  -11.169 -3.91217 -15.6373
RightLeg  44.4449 -2.80063 -3.16837
RightFoot  -0.582037 -0.845601 8.73727
RightToes  5.47152e-009 0 -3.6325e-017
Spine  8.53071 0.929987 -2.54461
Spine1  6.96308 0.945183 -4.37131
HEad  -5.25765 -2.49033 -1.87267
LeftShoulder1  -0.212264 4.10422 -29.2154
LeftArm  -14.1984 -5.85939 -35.9284
LeftForeArm  18.0272 2.34556 -2.32662
LeftHand  -0.0347726 4.89881 3.20713
RightShoulder  -0.459382 -4.96308 24.594
RightArm  -3.34593 0.933509 35.7078
RightForeArm  16.4146 9.14125 0.579279
RightHand  -0.0628612 2.08901 -1.15502
LeftUpLeg  2.02145 7.43934 -3.7769
LeftLeg  20.0304 2.76771 0.905291
LeftFoot  -15.8859 0.209002 2.86973
LeftToes  -4.29285e-010 1.49941e-010 2.15559e-012
33
root  18.9431 38.5743 6.40625 -73.5206 -85.9754 66.3249
RightUpLeg  -14.293 -5.11962 -14.3088
RightLeg  46.5597 0.317597 0.02502
RightFoot  -2.05127 -0.853679 10.317
RightToes  5.47152e-009 0 -3.6325e-017
Spine  8.76847 0.581021 -2.97976
Spine1  7.22219 0.462204 -3.90246
HEad  -6.02539 -1.9804 -1.86979
LeftShoulder1  -0.195589 4.02251 -31.6441
LeftArm  -12.7845 -6.15226 -37.6502
LeftForeArm  20.1374 3.63829 -3.01438
LeftHand  -0.0452267 3.9291 1.91322
RightShoulder  -0.586461 -5.26253 26.5865
RightArm  -2.62615 0.0705825 38.5168
RightForeArm  16.8919 8.93099 0.833627
RightHand  -0.0570365 1.89213 -1.07732
LeftUpLeg  2.79158 7.3305 -3.75573
LeftLeg  19.9791 2.93917 1.01981
LeftFoot  -16.6101 0.2276 2.77
LeftToes  -4.29285e-010 1.49941e-010 2.15559e-012
34
root  18.4625 38.5598 6.57367 -68.7445 -86.3512 61.8277
RightUpLeg  -16.9175 -6.79977 -12.2495
RightLeg  45.5218 2.6954 2.62147
RightFoot  -2.56687 -0.924503 11.7684
RightToes  5.47152e-009 0 -3.6325e-017
Spine  8.79492 0.0991981 -3.41623
Spine1  7.30258 -0.115529 -3.47287
HEad  -6.14646 -1.56652 -2.37057
LeftShoulder1  -0.134922 3.84542 -33.319
LeftArm  -11.6681 -6.43681 -39.7215
LeftForeArm  21.8348 4.63696 -3.58394
LeftHand  -0.0335904 4.43386 1.3628
RightShoulder  -0.751779 -5.63246 28.6596
RightArm  -1.15343 -1.13178 40.8131
RightForeArm  16.2294 9.00106 1.40907
RightHand  -0.0712824 1.96899 -1.2891
LeftUpLeg  3.30783 7.72163 -3.31251
LeftLeg  20.0277 2.58284 0.825042
LeftFoot  -17.3475 0.274973 3.25294
LeftToes  -4.29285e-010 1.49941e-010 2.15559e-012
35
root  17.9244 38.607 6.75742 -61.5583 -86.8766 55.0224
RightUpLeg  -18.7622 -8.47632 -9.68598
RightLeg  41.3377 3.61747 3.14242
RightFoot  -2.86465 -0.889171 11.7181
RightToes  5.47152e-009 0 -3.6325e-017
Spine  8.93456 -0.582869 -3.72312
Spine1  7.03652 -0.886417 -2.66066
HEad  -6.8568 -0.226619 -2.34495
LeftShoulder1  -0.108572 3.77285 -34.1624
LeftArm  -10.6708 -6.02361 -42.1065
LeftForeArm  24.539 4.29884 -4.18635
LeftHand  -0.0340609 4.11483 1.17988
RightShoulder  -0.880284 -5.8978 30.1911
RightArm  0.170683 -2.498 43.1083
RightForeArm  16.7547 8.79234 1.92261
RightHand  -0.125573 2.51323 -2.05231
LeftUpLeg  4.24277 8.12337 -2.58877
LeftLeg  19.2105 2.02147 0.439028
LeftFoot  -17.7846 0.30888 3.59619
LeftToes  -4.29285e-010 1.49941e-010 2.15559e-012
36
root  17.3153 38.6305 6.91513 -71.1793 -87.6261 64.933
RightUpLeg  -19.9142 -8.94488 -7.27337
RightLeg  34.8491 3.3608 2.29031
RightFoot  -4.00313 -0.846535 12.7118
RightToes  5.47152e-009 0 -3.6325e-017
Spine  8.93231 -0.811514 -4.36166
Spine1  7.17464 -1.2956 -1.41698
HEad  -7.97032 0.901389 -2.58393
LeftShoulder1  -0.104787 3.75814 -35.0455
LeftArm  -9.73654 -5.98618 -44.3328
LeftForeArm  26.7341 3.58288 -4.79839
LeftHand  -0.0339833 4.67905 1.54666
RightShoulder  -0.90585 -5.92982 30.7207
RightArm  1.58011 -3.91984 45.4935
RightForeArm  17.088 8.18814 2.48666
RightHand  -0.130253 2.70184 -2.0827
LeftUpLeg  5.65804 8.23016 -2.23778
LeftLeg  17.9325 2.56742 0.409512
LeftFoot  -18.286 0.309485 3.28458
LeftToes  -4.29285e-010 1.49941e-010 2.15559e-012
37
root  16.6727 38.6354 7.06368 -80.6583 -88.0971 74.7421
RightUpLeg  -20.3666 -9.32532 -5.04321
RightLeg  26.6485 2.59582 1.17983
RightFoot  -4.79784 -0.745586 12.4165
RightToes  5.47152e-009 0 -3.6325e-017
Spine  8.80617 -1.14863 -4.56056
Spine1  7.58537 -1.6405 -0.805457
HEad  -9.34625 1.33323 -2.64079
LeftShoulder1  -0.0547175 3.63605 -35.1348
LeftArm  -8.9508 -6.32503 -46.7987
LeftForeArm  27.4662 3.03639 -5.23629
LeftHand  -0.0322549 4.60147 1.19863
RightShoulder  -0.975713 -6.05538 31.6485
RightArm  3.8938 -4.77547 47.0399
RightForeArm  17.8135 7.14408 3.37697
RightHand  -0.0927749 1.21166 -1.75837
LeftUpLeg  7.0215 8.24329 -2.02514
LeftLeg  16.7045 3.08129 0.405557
LeftFoot  -18.7403 0.332983 3.41158
LeftToes  -4.29285e-010 1.49941e-010 2.15559e-012
38
root  15.9588 38.6052 7.20155 -94.7199 -88.2847 89.285
RightUpLeg  -20.3794 -9.76183 -3.20855
RightLeg  17.6047 2.20355 0.64628
RightFoot  -5.32157 -0.661928 11.8629
RightToes  5.47152e-009 0 -3.6325e-017
Spine  8.6857 -1.45278 -4.82749
Spine1  7.71413 -2.01407 -0.0864009
HEad  -10.5299 2.45524 -3.30303
LeftShoulder1  -0.0768708 3.68759 -35.6458
LeftArm  -8.04867 -6.85971 -48.4103
LeftForeArm  27.8219 2.30297 -5.77213
LeftHand  -0.0515068 2.93265 1.74954
RightShoulder  -0.92317 -5.92495 31.5166
RightArm  6.52618 -5.85264 48.5516
RightForeArm  19.3503 6.38917 4.44821
RightHand  -0.0719043 1.25305 -1.36402
LeftUpLeg  8.44029 8.22559 -1.9807
LeftLeg  15.3391 3.41517 0.203952
LeftFoot  -19.2413 0.334519 3.16609
LeftToes  -4.29285e-010 1.49941e-010 2.15559e-012
39
root  15.1824 38.532 7.33691 -110.19 -88.0394 105.257
RightUpLeg  -20.2933 -8.57255 -2.33707
RightLeg  9.24122 1.17344 0.734828
RightFoot  -5.56636 -0.631346 11.7224
RightToes  5.47152e-009 0 -3.6325e-017
Spine  8.50475 -1.64671 -4.58831
Spine1  7.89816 -2.09212 -0.106289
HEad  -11.6907 2.90124 -3.23481
LeftShoulder1  -0.0121852 3.53315 -35.5268
LeftArm  -6.86338 -7.60211 -50.0108
LeftForeArm  28.1599 1.68008 -6.48542
LeftHand  -0.0659449 2.7122 2.28638
RightShoulder  -0.925147 -5.90972 31.8237
RightArm  8.88089 -6.77779 49.1323
RightForeArm  22.0951 6.15087 5.37463
RightHand  -0.0300258 0.414826 -0.658739
LeftUpLeg  9.90263 8.22384 -2.16572
LeftLeg  14.0248 3.95296 -0.0793579
LeftFoot  -19.8152 0.349541 3.11681
LeftToes  -4.29285e-010 1.49941e-010 2.15559e-012
40
root  14.3052 38.3993 7.46243 -125.351 -87.5289 120.827
RightUpLeg  -20.2672 -5.49525 -2.46763
RightLeg  2.7094 -0.903968 1.2328
RightFoot  -5.83577 -0.58421 11.2874
RightToes  5.47152e-009 0 -3.6325e-017
Spine  8.43888 -1.63233 -4.36404
Spine1  7.86983 -2.08937 0.214593
HEad  -12.5615 3.11532 -3.48741
LeftShoulder1  -0.0329677 3.5821 -35.9253
LeftArm  -6.02559 -8.86106 -50.9839
LeftForeArm  29.1516 1.78908 -6.933
LeftHand  -0.0929796 2.10547 2.93642
RightShoulder  -0.803918 -5.62709 31.204
RightArm  10.501 -8.00489 49.5904
RightForeArm  23.2891 6.07505 6.05456
RightHand  -0.0326342 0.350755 -0.703822
LeftUpLeg  11.5295 8.05182 -2.61053
LeftLeg  12.8905 4.75003 -0.083247
LeftFoot  -20.6354 0.338807 2.64003
LeftToes  -4.29285e-010 1.49941e-010 2.15559e-012
